<svg width="1440" height="996" viewBox="0 0 1440 996" fill="none" xmlns="http://www.w3.org/2000/svg">
<rect width="1440" height="996" fill="#691F74"/>
<mask id="mask0" mask-type="alpha" maskUnits="userSpaceOnUse" x="0" y="0" width="1440" height="996">
<rect width="1440" height="996" fill="#691F74"/>
</mask>
<g mask="url(#mask0)">
<g opacity="0.12">
<path d="M-29 1058.96V461H132.534C209.854 461 272.534 523.68 272.534 601V803.676C272.534 944.666 157.811 1058.96 16.2893 1058.96H-29Z" fill="url(#paint0_linear)"/>
<path d="M206.947 883.525C257.189 883.525 298.052 924.388 298.052 974.63C298.052 1024.87 257.189 1065.74 206.947 1065.74C156.705 1065.74 115.842 1024.87 115.842 974.63C115.871 924.388 156.734 883.525 206.947 883.525ZM206.947 846.01C135.927 846.01 78.3262 903.582 78.3262 974.63C78.3262 1045.65 135.898 1103.25 206.947 1103.25C277.967 1103.25 335.567 1045.68 335.567 974.63C335.567 903.611 277.995 846.01 206.947 846.01Z" fill="#44195D"/>
<path d="M398.599 588.769C328.05 588.769 270.831 646.34 270.831 717.389C270.831 788.409 328.021 846.01 398.599 846.01V588.769Z" fill="#6F3194"/>
<rect x="412.228" y="665.43" width="81.772" height="81.772" fill="#FE3B1F"/>
</g>
<g opacity="0.12">
<path d="M1456.91 534V1156H1144.42V798.542C1144.42 652.438 1262.86 534 1408.97 534H1456.91Z" fill="url(#paint1_linear)"/>
<path d="M1156.34 911.828C1182.71 905.556 1199.01 879.093 1192.73 852.722C1186.46 826.352 1160 810.059 1133.63 816.331C1107.26 822.603 1090.96 849.065 1097.24 875.436C1103.51 901.807 1129.97 918.1 1156.34 911.828Z" fill="#FE3B1F"/>
<path d="M1456.27 759.825C1508.12 759.825 1550.29 801.995 1550.29 853.843C1550.29 905.691 1508.12 947.861 1456.27 947.861C1404.42 947.861 1362.25 905.691 1362.25 853.843C1362.25 801.995 1404.45 759.825 1456.27 759.825ZM1456.27 721.11C1382.98 721.11 1323.54 780.523 1323.54 853.843C1323.54 927.133 1382.95 986.576 1456.27 986.576C1529.56 986.576 1589 927.163 1589 853.843C1589 780.523 1529.56 721.11 1456.27 721.11Z" fill="#44195D"/>
<path d="M1010.61 923.733C1010.61 997.321 1070.26 1056.97 1143.85 1056.97C1217.44 1056.97 1277.09 997.321 1277.09 923.733H1010.61Z" fill="#6F3194"/>
<path opacity="0.2" d="M1062.46 627.67C999.63 627.67 948.721 678.234 948.721 740.575C948.721 802.946 999.66 853.481 1062.46 853.481" stroke="#492163" stroke-width="2" stroke-miterlimit="10"/>
</g>
</g>
<defs>
<linearGradient id="paint0_linear" x1="353.643" y1="890.677" x2="-30.493" y2="1018.01" gradientUnits="userSpaceOnUse">
<stop stop-color="#FFF0EA"/>
<stop offset="1" stop-color="#FFF0EA" stop-opacity="0"/>
</linearGradient>
<linearGradient id="paint1_linear" x1="1540.97" y1="980.953" x2="1142.58" y2="1112.52" gradientUnits="userSpaceOnUse">
<stop stop-color="#FFF0EA"/>
<stop offset="1" stop-color="#FFF0EA" stop-opacity="0"/>
</linearGradient>
</defs>
</svg>
