<svg width="375" height="641" viewBox="0 0 375 641" fill="none" xmlns="http://www.w3.org/2000/svg">
<rect width="375" height="641" fill="#691F74"/>
<mask id="mask0" mask-type="alpha" maskUnits="userSpaceOnUse" x="0" y="0" width="375" height="641">
<rect width="375" height="641" fill="#691F74"/>
</mask>
<g mask="url(#mask0)">
<g opacity="0.12">
<path d="M-23 695.718V302.87H83.1254C133.923 302.87 175.103 344.049 175.103 394.847V528.002C175.103 620.63 99.7319 695.718 6.75434 695.718H-23Z" fill="url(#paint0_linear)"/>
<path d="M132.013 580.463C165.021 580.463 191.868 607.309 191.868 640.317C191.868 673.325 165.021 700.172 132.013 700.172C99.005 700.172 72.1586 673.325 72.1586 640.317C72.1775 607.309 99.0239 580.463 132.013 580.463ZM132.013 555.815C85.3543 555.815 47.5115 593.639 47.5115 640.317C47.5115 686.976 85.3353 724.819 132.013 724.819C178.672 724.819 216.515 686.995 216.515 640.317C216.515 593.658 178.691 555.815 132.013 555.815Z" fill="#44195D"/>
<path d="M257.926 386.812C211.576 386.812 173.984 424.636 173.984 471.314C173.984 517.973 211.557 555.816 257.926 555.816V386.812Z" fill="#6F3194"/>
<rect x="266.88" y="437.177" width="53.7229" height="53.7229" fill="#FE3B1F"/>
</g>
</g>
<defs>
<linearGradient id="paint0_linear" x1="228.39" y1="585.161" x2="-23.9809" y2="668.818" gradientUnits="userSpaceOnUse">
<stop stop-color="#FFF0EA"/>
<stop offset="1" stop-color="#FFF0EA" stop-opacity="0"/>
</linearGradient>
</defs>
</svg>
