<svg width="64" height="64" viewBox="0 0 64 64" fill="none" xmlns="http://www.w3.org/2000/svg">
<rect width="64" height="64" fill="white"/>
<path d="M41.8345 32.5547L27.7025 41.976C27.6021 42.0428 27.4855 42.0811 27.365 42.0869C27.2446 42.0927 27.1248 42.0656 27.0185 42.0087C26.9122 41.9518 26.8233 41.8671 26.7613 41.7637C26.6993 41.6602 26.6666 41.5419 26.6665 41.4213V22.5787C26.6666 22.4581 26.6993 22.3398 26.7613 22.2363C26.8233 22.1329 26.9122 22.0482 27.0185 21.9913C27.1248 21.9344 27.2446 21.9074 27.365 21.9131C27.4855 21.9189 27.6021 21.9572 27.7025 22.024L41.8345 31.4453C41.9258 31.5062 42.0007 31.5887 42.0525 31.6855C42.1042 31.7822 42.1313 31.8903 42.1313 32C42.1313 32.1098 42.1042 32.2178 42.0525 32.3146C42.0007 32.4113 41.9258 32.4938 41.8345 32.5547V32.5547Z" fill="#2B00D4"/>
</svg>
