<svg width="108" height="36" viewBox="0 0 108 36" fill="none" xmlns="http://www.w3.org/2000/svg">
<g clip-path="url(#clip0_40_16589)">
<path fill-rule="evenodd" clip-rule="evenodd" d="M20.5771 16.2679C20.5867 16.2679 20.5964 16.2662 20.6054 16.2631C23.9092 15.1168 24.5565 12.2008 24.1967 9.45445C24.1736 9.27889 24.1658 8.98954 24.3338 9.04553V9.04553C27.61 10.6473 31.294 14.1419 31.294 19.384C31.294 23.4028 28.1779 26.9558 23.6494 26.9558C22.0335 27.0292 20.4391 26.5625 19.1179 25.6292C17.7968 24.6959 16.824 23.3492 16.3533 21.8016C15.8825 20.2541 15.9405 18.5938 16.5181 17.0829C17.0957 15.5719 18.1601 14.2964 19.5431 13.4576C19.6305 13.3993 19.747 13.4576 19.747 13.5595C19.7901 14.0905 19.9321 15.4137 20.5078 16.2324C20.5237 16.2549 20.5496 16.2679 20.5771 16.2679V16.2679Z" fill="url(#paint0_linear_40_16589)"/>
<path fill-rule="evenodd" clip-rule="evenodd" d="M40.9333 23.771L41.1809 23.4798L41.9526 25.9261L41.8507 26.028C41.2682 26.5668 40.3946 26.8434 39.2734 26.8434H39.2297C38.2104 26.8434 37.4095 26.5522 36.8562 26.0134C36.3029 25.4601 36.0117 24.6301 36.0117 23.5817V16.9127H34.0459V14.2189H36.0117V10.9718H39.0404V14.2189H41.443V16.9127H39.0258V22.9265C39.0258 23.2031 39.0986 24.0914 39.9432 24.0914C40.38 24.0914 40.7877 23.9312 40.9333 23.7565V23.771ZM42.5351 26.5668V14.2335H45.5638V26.5668H42.5351ZM44.0349 9.19531C44.3942 9.19532 44.7455 9.30172 45.0445 9.50108C45.3435 9.70044 45.5768 9.98386 45.715 10.3156C45.8532 10.6473 45.8901 11.0126 45.821 11.3652C45.752 11.7179 45.58 12.0422 45.3269 12.2974C45.0738 12.5525 44.7509 12.727 44.3988 12.7988C44.0467 12.8707 43.6812 12.8367 43.3483 12.7012C43.0155 12.5657 42.7302 12.3346 42.5285 12.0372C42.3268 11.7398 42.2176 11.3894 42.2147 11.03C42.2147 10.0399 43.0447 9.19531 44.0349 9.19531ZM53.7035 13.9277C56.3245 13.9277 57.766 15.3547 57.766 17.9611V26.5522H54.7373V18.6892C54.6791 17.2913 54.0092 16.6506 52.5822 16.6506C51.3009 16.6506 50.267 17.4369 49.7428 18.1067V26.5522H46.7141V14.248H49.7428V15.5585C50.6165 14.714 52.0144 13.9568 53.7035 13.9568V13.9277ZM67.8423 15.5149V9.71951H70.8711V26.5813H67.8423V25.3C67.3789 25.7888 66.8214 26.1788 66.2033 26.4465C65.5852 26.7143 64.9193 26.8542 64.2457 26.858C60.9404 26.858 58.7271 24.2661 58.7271 20.4074C58.7271 16.5341 60.9404 13.9422 64.2457 13.9422C64.9208 13.9453 65.5881 14.0864 66.2066 14.3569C66.8251 14.6273 67.3817 15.0214 67.8423 15.5149V15.5149ZM67.8423 18.1213C67.5048 17.6817 67.0735 17.3229 66.5798 17.071C66.0861 16.8191 65.5424 16.6805 64.9884 16.6652C63.11 16.6652 61.8577 18.165 61.8577 20.4074C61.8577 22.6353 63.11 24.1351 64.9884 24.1351C66.0804 24.1351 67.2745 23.5526 67.8423 22.7081V18.1213ZM77.9478 13.9422C81.5298 13.9422 84.0198 16.7089 84.0198 20.6404V21.4704H74.8608C75.1666 23.2031 76.5354 24.3098 78.3992 24.3098C79.5786 24.3098 80.8746 23.8002 81.6172 23.0575L81.8211 22.8828L83.2626 24.9505L83.117 25.0815C81.7526 26.2913 79.9738 26.9277 78.1516 26.858C74.3657 26.858 71.701 24.1933 71.701 20.3928C71.6716 19.5538 71.812 18.7174 72.1138 17.9339C72.4157 17.1505 72.8727 16.4361 73.4575 15.8336C74.0422 15.2312 74.7427 14.7531 75.5168 14.4281C76.2909 14.1031 77.1228 13.9378 77.9623 13.9422H77.9478ZM74.8463 19.1843H81.0639C80.8891 17.335 79.3602 16.4905 77.9478 16.4905C75.8219 16.4905 75.021 18.0922 74.8463 19.1988V19.1843ZM91.344 13.9422H91.5625V17.0001L91.3004 16.9564C91.0819 16.9127 90.8053 16.8836 90.5286 16.8836C89.553 16.8836 88.1988 17.568 87.6892 18.296V26.5522H84.6605V14.2335H87.7038V15.6022C88.7085 14.5538 90.0335 13.9422 91.344 13.9422V13.9422Z" fill="#0F0928"/>
</g>
<rect x="0.5" y="0.5" width="106.6" height="35" rx="17.5" stroke="url(#paint1_linear_40_16589)"/>
<defs>
<linearGradient id="paint0_linear_40_16589" x1="31.2941" y1="9.03906" x2="13.6001" y2="24.099" gradientUnits="userSpaceOnUse">
<stop stop-color="#FF7854"/>
<stop offset="1" stop-color="#FD267D"/>
</linearGradient>
<linearGradient id="paint1_linear_40_16589" x1="101.582" y1="-1.75611" x2="-3.38712" y2="16.2071" gradientUnits="userSpaceOnUse">
<stop stop-color="#FF7854"/>
<stop offset="1" stop-color="#FD267D" stop-opacity="0"/>
</linearGradient>
<clipPath id="clip0_40_16589">
<rect width="75.6" height="18" fill="white" transform="translate(16 9)"/>
</clipPath>
</defs>
</svg>
