<svg width="564" height="564" viewBox="0 0 564 564" fill="none" xmlns="http://www.w3.org/2000/svg">
<path fill-rule="evenodd" clip-rule="evenodd" d="M1 282.001C1 246.339 7.64309 212.229 19.7593 180.841C20.6037 178.653 21.4747 176.479 22.3718 174.318C35.2393 143.329 53.4934 115.14 75.9657 90.9203C89.2126 76.6434 103.925 63.7455 119.864 52.4661C153.789 28.4586 193.271 11.7829 236 4.74668C250.968 2.28195 266.334 1 282 1C297.666 1 313.032 2.28195 328 4.74668C370.729 11.7829 410.211 28.4586 444.136 52.4661C460.075 63.7455 474.787 76.6434 488.034 90.9203C510.507 115.14 528.761 143.329 541.628 174.318C542.525 176.479 543.396 178.653 544.241 180.841C556.357 212.229 563 246.339 563 282.001C563 317.663 556.357 351.773 544.241 383.161H444.136C450.509 372.969 455.947 362.132 460.331 350.771C468.565 329.432 473.08 306.244 473.08 282.001C473.08 244.851 462.478 210.178 444.136 180.841L443.943 180.533C410.145 126.704 350.251 90.9203 282 90.9203C213.749 90.9203 153.855 126.704 120.057 180.533L119.864 180.841C101.522 210.178 90.92 244.851 90.92 282.001C90.92 306.244 95.4347 329.432 103.669 350.771C108.053 362.132 113.491 372.969 119.864 383.161H19.7593C7.64309 351.773 1 317.663 1 282.001ZM119.857 511.534C103.917 500.254 89.2049 487.357 75.958 473.08H488.027C474.78 487.357 460.067 500.254 444.128 511.534C398.319 543.951 342.38 563 281.992 563C221.604 563 165.665 543.951 119.857 511.534Z" stroke="url(#paint0_linear_1_3743)" stroke-width="2"/>
<defs>
<linearGradient id="paint0_linear_1_3743" x1="320.5" y1="228" x2="109.11" y2="464.887" gradientUnits="userSpaceOnUse">
<stop stop-color="#332864"/>
<stop offset="1" stop-color="#332864" stop-opacity="0"/>
</linearGradient>
</defs>
</svg>
