<svg width="230" height="36" viewBox="0 0 230 36" fill="none" xmlns="http://www.w3.org/2000/svg">
<g clip-path="url(#clip0_1_33297)">
<path d="M30.3183 10C30.9065 10.9383 31.1716 11.9048 31.1716 13.1256C31.1716 17.0195 27.7305 22.0779 24.9376 25.6298H18.5584L16 10.8525L21.5857 10.3403L22.9383 20.8553C24.2022 18.8663 25.7619 15.7407 25.7619 13.6097C25.7619 12.4433 25.555 11.6488 25.2317 10.9946L30.3183 10Z" fill="#008CFF"/>
<path d="M37.5582 16.5079C38.5861 16.5079 41.1738 16.0537 41.1738 14.633C41.1738 13.9509 40.6744 13.6106 40.0859 13.6106C39.0564 13.6106 37.7054 14.8031 37.5582 16.5079ZM37.4404 19.3216C37.4404 21.0563 38.439 21.7369 39.7628 21.7369C41.2044 21.7369 42.5847 21.3966 44.3787 20.5159L43.703 24.9482C42.439 25.5448 40.469 25.9429 38.5569 25.9429C33.7066 25.9429 31.9707 23.1015 31.9707 19.5494C31.9707 14.9455 34.7944 10.057 40.6159 10.057C43.8211 10.057 45.6133 11.7916 45.6133 14.2068C45.6136 18.1006 40.44 19.2934 37.4404 19.3216V19.3216Z" fill="#008CFF"/>
<path d="M61.7327 13.4112C61.7327 13.9795 61.6437 14.8037 61.5546 15.3424L59.8788 25.5733H54.4398L55.9687 16.1948C55.9977 15.9404 56.0868 15.4283 56.0868 15.1442C56.0868 14.462 55.6456 14.2918 55.1151 14.2918C54.4105 14.2918 53.7043 14.604 53.2339 14.832L51.4998 25.5734H46.0303L48.529 10.256H53.2629L53.3228 11.4786C54.4397 10.7682 55.9103 10 57.9967 10C60.7612 9.99971 61.7327 11.3642 61.7327 13.4112V13.4112Z" fill="#008CFF"/>
<path d="M77.88 11.7338C79.4378 10.655 80.9087 10.057 82.9365 10.057C85.7292 10.057 86.7007 11.4215 86.7007 13.4685C86.7007 14.0368 86.6117 14.861 86.5231 15.3997L84.8488 25.6306H79.4084L80.9667 16.0539C80.9952 15.7979 81.0557 15.4856 81.0557 15.2875C81.0557 14.5194 80.6143 14.3491 80.0838 14.3491C79.4084 14.3491 78.733 14.6332 78.2315 14.8893L76.4977 25.6307H71.0589L72.6168 16.054C72.6453 15.798 72.7042 15.4858 72.7042 15.2877C72.7042 14.5196 72.2623 14.3492 71.7339 14.3492C71.0279 14.3492 70.3231 14.6615 69.8527 14.8895L68.1172 25.6309H62.6494L65.1481 10.3134H69.8241L69.9711 11.5922C71.0589 10.8258 72.5282 10.0576 74.498 10.0576C76.2037 10.057 77.3201 10.7675 77.88 11.7338V11.7338Z" fill="#008CFF"/>
<path d="M97.5232 16.1956C97.5232 14.9451 97.1993 14.0926 96.2299 14.0926C94.0836 14.0926 93.6426 17.7582 93.6426 19.6333C93.6426 21.0559 94.0547 21.9363 95.0241 21.9363C97.0527 21.9363 97.5232 18.0706 97.5232 16.1956V16.1956ZM88.1152 19.407C88.1152 14.5765 90.7609 10.0566 96.8478 10.0566C101.434 10.0566 103.111 12.6718 103.111 16.2813C103.111 21.0557 100.494 26.0001 94.2601 26.0001C89.6441 26.0001 88.1152 23.0727 88.1152 19.407Z" fill="#008CFF"/>
</g>
<rect x="0.5" y="0.5" width="119" height="35" rx="17.5" stroke="url(#paint0_linear_1_33297)"/>
<path fill-rule="evenodd" clip-rule="evenodd" d="M158.546 11.1326L153.021 17.3081L158.969 25.9967H156.286L151.484 19.0407L150.288 20.3345C148.981 21.7911 146.566 20.8659 146.566 18.9087V7.92501H144V6H148.941V7.92501V18.6215L155.668 11.1326H158.546ZM165.341 13.2499C163.395 13.3095 161.793 14.998 161.793 16.9451V17.3086H169.015V16.8091C169.014 14.8048 167.359 13.188 165.341 13.2499ZM165.341 23.9311C167.003 23.9821 168.416 22.893 168.865 21.3883H171.383L171.377 21.444C171.181 22.8413 170.343 24.1547 169.197 24.937C168.191 25.6076 166.934 25.999 165.593 25.999C163.609 25.999 161.988 25.1606 160.898 23.875C159.725 22.5056 159.238 20.6334 159.238 18.622C159.238 16.9176 159.445 15.4082 160.227 14.0948C161.234 12.3908 163.106 11.1331 165.565 11.1331C167.381 11.1331 168.834 11.8316 169.868 12.9496C171.014 14.2069 171.684 16.0231 171.657 17.9231L171.628 19.3479V19.3486H161.793C161.793 19.3486 161.793 20.8801 162.271 21.8857C162.836 23.0518 163.98 23.8895 165.341 23.9311ZM176.117 11.468H173.88V26H176.227V16.9457C176.22 15.0442 177.714 13.6596 179.428 13.4389C180.01 13.3644 180.533 13.5088 180.729 13.5786L180.728 11.3146C180.696 11.3101 180.66 11.3044 180.62 11.2981C180.413 11.2657 180.101 11.2166 179.75 11.2166C178.045 11.2166 176.648 12.2366 176.172 13.8433H176.117V11.468ZM198.544 16.9451C198.544 14.998 200.146 13.3095 202.092 13.2499C204.11 13.188 205.765 14.8048 205.765 16.8091V17.3086H198.544V16.9451ZM205.615 21.3883C205.167 22.893 203.753 23.9821 202.092 23.9311C200.731 23.8895 199.587 23.0518 199.021 21.8857C198.543 20.8801 198.544 19.3486 198.544 19.3486H208.378C208.378 19.3486 208.379 19.3483 208.379 19.3479L208.407 17.9231C208.435 16.0231 207.764 14.2069 206.618 12.9496C205.585 11.8316 204.131 11.1331 202.316 11.1331C199.856 11.1331 197.984 12.3908 196.978 14.0948C196.196 15.4082 195.988 16.9176 195.988 18.622C195.988 20.6334 196.475 22.5056 197.649 23.875C198.739 25.1606 200.36 25.999 202.343 25.999C203.685 25.999 204.942 25.6076 205.948 24.937C207.093 24.1547 207.932 22.8413 208.127 21.444L208.134 21.3883H205.615ZM209.047 6.00036V7.92501L211.613 7.92465V25.9985H213.988V6.08355V6L209.047 6.00036ZM181.699 17.365C181.699 13.8857 183.978 11.1331 187.776 11.1331C191.574 11.1331 193.852 13.821 193.852 17.3133V25.999H191.477V17.4417C191.477 15.3181 189.798 13.4354 187.776 13.4354C185.753 13.4354 184.075 15.3181 184.075 17.4417V25.999H181.699V17.365Z" fill="#14131B"/>
<rect x="128.5" y="0.5" width="101" height="35" rx="17.5" stroke="url(#paint1_linear_1_33297)"/>
<defs>
<linearGradient id="paint0_linear_1_33297" x1="113.289" y1="-1.75611" x2="-2.97114" y2="20.432" gradientUnits="userSpaceOnUse">
<stop stop-color="#008CFF"/>
<stop offset="1" stop-color="#008CFF" stop-opacity="0"/>
</linearGradient>
<linearGradient id="paint1_linear_1_33297" x1="224.296" y1="-1.75611" x2="124.501" y2="14.4327" gradientUnits="userSpaceOnUse">
<stop stop-color="#14131B"/>
<stop offset="1" stop-color="#14131B" stop-opacity="0"/>
</linearGradient>
<clipPath id="clip0_1_33297">
<rect width="88" height="16" fill="white" transform="translate(16 10)"/>
</clipPath>
</defs>
</svg>
