<svg width="138" height="36" viewBox="0 0 138 36" fill="none" xmlns="http://www.w3.org/2000/svg">
<path d="M79.3413 14.5414H74.707V16.6148H78.5638V18.7635H74.707V21.2201H79.3413V23.4739H71.5514V12.3777H79.3261V14.5263L79.3413 14.5414ZM93.0994 21.2802V23.4588H85.0198V12.3928H88.2212V21.2802H93.0994ZM118.847 16.6073C121.332 17.1708 122.43 18.1549 122.43 19.9129C122.43 20.7393 122.178 21.6107 121.393 22.3319C120.25 23.3837 118.71 23.7068 116.591 23.7068C115.067 23.7068 113.595 23.3687 112.147 22.7602L112.879 20.5364C114.144 21.0623 115.394 21.4755 116.713 21.4755C118.161 21.4755 118.923 21.1149 118.885 20.2735C118.862 19.372 117.285 19.109 115.745 18.7935C114.144 18.463 112.391 17.6666 112.483 15.5631C112.559 13.2342 114.563 12.0547 117.536 12.0547C119.061 12.0547 120.631 12.3327 121.85 12.9863L120.974 15.0297C119.777 14.4287 118.611 14.2033 117.62 14.2033C116.995 14.2033 115.928 14.4287 115.928 15.225C115.928 16.0664 116.69 16.1265 118.84 16.5998L118.847 16.6073ZM67.0162 14.5789H63.6929V23.4739H60.4992V14.5714H57.1836V12.3928H66.9934V14.5714L67.0162 14.5789ZM104.007 12.4003H107.3V19.7852C107.3 20.7919 107.284 21.0323 107.071 21.5356C106.636 22.5648 105.165 23.6692 102.269 23.6692H102.162C100.028 23.6692 98.4578 23.1583 97.6651 22.1667C97.1772 21.5657 97.0324 21.0849 97.0324 20.0331V12.3928H100.348V19.6049C100.348 20.2059 100.409 20.5665 100.546 20.7768C100.813 21.1825 101.385 21.4079 102.162 21.4154C103.214 21.4154 103.877 21.0248 103.976 20.3486C104.014 20.1383 104.014 19.988 104.014 19.4321V12.3928L104.007 12.4003Z" fill="#4B286D"/>
<path d="M58.6929 9.35938L40.0947 13.003V14.2801H40.171C52.4427 11.3277 58.6929 9.56222 58.7462 9.54719C58.8225 9.53217 58.8377 9.47206 58.8225 9.4345C58.8225 9.38191 58.7691 9.35938 58.6929 9.35938Z" fill="#4B286D"/>
<path d="M43.0893 10.3687C43.3789 10.1959 43.4704 10.3086 43.3789 10.519C43.2417 10.842 42.6167 12.8253 37.929 16.6042C36.7095 17.5958 35.8329 18.1443 34.0722 19.1735C36.9534 15.1918 41.1609 11.6083 43.0817 10.3837L43.0893 10.3687ZM43.5771 9.00141C42.6624 9.04649 41.0008 10.3537 40.0861 11.1425C36.4275 14.2602 33.7064 17.1301 31.7246 20.1276C27.6086 22.3063 22.3493 24.545 17.1281 26.2879L17.0061 26.333L16 29L16.5717 28.7896C19.8949 27.5426 25.4363 25.1986 30.4669 22.5993C30.162 23.3505 30.0325 24.0266 30.0325 24.6502C30.0325 25.1235 30.1087 25.5517 30.2611 25.9424C30.5813 26.7237 31.2063 27.3172 32.0676 27.6703C33.3634 28.1661 35.1165 28.1736 37.0982 27.5801C42.2203 26.0475 48.2876 21.3672 49.5986 20.4431L49.6596 20.3981C49.7053 20.3605 49.713 20.3079 49.6901 20.2703C49.6596 20.2253 49.5986 20.2178 49.5529 20.2478L49.4767 20.2854C48.0666 21.1118 41.1837 25.1385 36.7095 26.318C34.4228 26.919 32.685 26.596 32.0295 25.6944C31.8008 25.3939 31.6941 24.9958 31.6941 24.5375C31.6941 23.651 32.1133 22.5091 32.9365 21.262C33.6987 20.8413 34.3847 20.4356 35.025 20.0374C39.3849 17.6184 44.4003 12.923 44.629 10.0457C44.629 10.0457 44.629 10.0156 44.629 9.99308C44.629 9.74516 44.5146 9.48973 44.3241 9.30192C44.1259 9.09156 43.8515 8.98639 43.5618 9.00141" fill="#62A44A"/>
<path d="M40.0415 13.0072L20.4829 17.1392L19.7207 19.1525L40.1024 14.2693H40.1329V12.9922L40.0415 13.0072Z" fill="#4B286D"/>
<rect x="0.5" y="0.5" width="137" height="35" rx="17.5" stroke="url(#paint0_linear_5_21800)"/>
<defs>
<linearGradient id="paint0_linear_5_21800" x1="130.282" y1="-1.75611" x2="-1.91849" y2="27.2588" gradientUnits="userSpaceOnUse">
<stop stop-color="#4B286D"/>
<stop offset="1" stop-color="#4B286D" stop-opacity="0"/>
</linearGradient>
</defs>
</svg>
