<svg width="161" height="36" viewBox="0 0 161 36" fill="none" xmlns="http://www.w3.org/2000/svg">
<path d="M16 12.2903H17.7097L24.3226 21.7742H24.3548V12.2903H25.7097V23.7097H24L17.3871 14.2258H17.3548V23.7097H16V12.2903Z" fill="black"/>
<path d="M31.5404 12.2903H38.7178V13.5484H32.8953V17.129H38.3307V18.3871H32.8953V22.4516H39.0082V23.7097H31.5404V12.2903Z" fill="black"/>
<path d="M42.7656 12.2903H44.2656L46.8623 21.7742H46.8946L49.701 12.2903H51.2172L54.0075 21.7742H54.0397L56.6849 12.2903H58.1043L54.7494 23.7097H53.2817L50.4591 14.0323H50.4268L47.5881 23.7097H46.1043L42.7656 12.2903Z" fill="black"/>
<path d="M75.5007 14.3065C75.2749 13.9409 74.9739 13.6774 74.5975 13.5161C74.2212 13.3441 73.8287 13.2581 73.4201 13.2581C73.119 13.2581 72.8233 13.2957 72.533 13.371C72.2427 13.4462 71.9792 13.5591 71.7427 13.7097C71.5169 13.8602 71.3341 14.0591 71.1943 14.3065C71.0545 14.5538 70.9846 14.8441 70.9846 15.1774C70.9846 15.4355 71.0222 15.6667 71.0975 15.871C71.1835 16.0645 71.3179 16.2419 71.5007 16.4032C71.6835 16.5645 71.9308 16.7151 72.2427 16.8548C72.5545 16.9946 72.9362 17.1344 73.3878 17.2742C73.8287 17.414 74.2534 17.5645 74.662 17.7258C75.0814 17.8871 75.447 18.0914 75.7588 18.3387C76.0814 18.586 76.3341 18.8978 76.5169 19.2742C76.7104 19.6398 76.8072 20.1021 76.8072 20.6613C76.8072 21.2312 76.6943 21.7258 76.4685 22.1452C76.2427 22.5645 75.9416 22.914 75.5653 23.1935C75.1997 23.4624 74.7749 23.6613 74.2911 23.7903C73.8072 23.9301 73.3072 24 72.7911 24C72.4577 24 72.1244 23.9677 71.7911 23.9032C71.4577 23.8495 71.1351 23.7634 70.8233 23.6452C70.5222 23.5161 70.2373 23.3548 69.9685 23.1613C69.6997 22.957 69.4685 22.7097 69.2749 22.4194L70.4362 21.4677C70.6835 21.8871 71.0276 22.2043 71.4685 22.4194C71.9093 22.6344 72.3771 22.7419 72.8717 22.7419C73.162 22.7419 73.4523 22.6989 73.7427 22.6129C74.0437 22.5269 74.3126 22.4032 74.5491 22.2419C74.7857 22.0699 74.9792 21.8602 75.1298 21.6129C75.2803 21.3656 75.3556 21.0806 75.3556 20.7581C75.3556 20.4032 75.2964 20.1183 75.1782 19.9032C75.0599 19.6774 74.8771 19.4839 74.6298 19.3226C74.3825 19.1613 74.0706 19.0161 73.6943 18.8871C73.3179 18.7581 72.8771 18.6075 72.3717 18.4355C71.9631 18.3065 71.5868 18.1613 71.2427 18C70.8986 17.828 70.5975 17.6237 70.3394 17.3871C70.0921 17.1398 69.8932 16.8495 69.7427 16.5161C69.6029 16.172 69.533 15.7634 69.533 15.2903C69.533 14.7419 69.6405 14.2634 69.8556 13.8548C70.0706 13.4462 70.361 13.1075 70.7265 12.8387C71.0921 12.5591 71.5061 12.3495 71.9685 12.2097C72.4308 12.0699 72.9147 12 73.4201 12C74.0653 12 74.6513 12.1022 75.1782 12.3065C75.7158 12.5 76.1943 12.8441 76.6136 13.3387L75.5007 14.3065Z" fill="black"/>
<path d="M82.0306 12.2903H83.3854V17.129H89.4822V12.2903H90.837V23.7097H89.4822V18.3871H83.3854V23.7097H82.0306V12.2903Z" fill="black"/>
<path d="M100.367 12.2903H101.641L106.496 23.7097H104.915L103.754 20.9032H98.0445L96.8671 23.7097H95.3348L100.367 12.2903ZM100.98 14.0323H100.948L98.5768 19.6452H103.238L100.98 14.0323Z" fill="black"/>
<path d="M110.791 12.2903H115.178C115.555 12.2903 115.952 12.3333 116.372 12.4194C116.791 12.5054 117.205 12.6452 117.614 12.8387C118.033 13.0215 118.431 13.2634 118.807 13.5645C119.194 13.8656 119.533 14.2312 119.823 14.6613C120.114 15.0806 120.345 15.5699 120.517 16.129C120.689 16.6774 120.775 17.3011 120.775 18C120.775 18.6989 120.689 19.328 120.517 19.8871C120.345 20.4355 120.114 20.9247 119.823 21.3548C119.533 21.7742 119.194 22.1344 118.807 22.4355C118.431 22.7366 118.033 22.9839 117.614 23.1774C117.205 23.3602 116.791 23.4946 116.372 23.5806C115.952 23.6667 115.555 23.7097 115.178 23.7097H110.791V12.2903ZM112.146 22.4516H114.727C115.382 22.4516 115.99 22.3656 116.549 22.1935C117.108 22.0215 117.592 21.7581 118.001 21.4032C118.409 21.0376 118.732 20.5753 118.968 20.0161C119.205 19.457 119.323 18.7849 119.323 18C119.323 17.2151 119.205 16.543 118.968 15.9839C118.732 15.4247 118.409 14.9677 118.001 14.6129C117.592 14.2473 117.108 13.9785 116.549 13.8065C115.99 13.6344 115.382 13.5484 114.727 13.5484H112.146V22.4516Z" fill="black"/>
<path d="M125.943 12.2903H133.12V13.5484H127.297V17.129H132.733V18.3871H127.297V22.4516H133.41V23.7097H125.943V12.2903Z" fill="black"/>
<path d="M143.91 14.3065C143.684 13.9409 143.383 13.6774 143.006 13.5161C142.63 13.3441 142.238 13.2581 141.829 13.2581C141.528 13.2581 141.232 13.2957 140.942 13.371C140.652 13.4462 140.388 13.5591 140.152 13.7097C139.926 13.8602 139.743 14.0591 139.603 14.3065C139.463 14.5538 139.394 14.8441 139.394 15.1774C139.394 15.4355 139.431 15.6667 139.506 15.871C139.592 16.0645 139.727 16.2419 139.91 16.4032C140.092 16.5645 140.34 16.7151 140.652 16.8548C140.963 16.9946 141.345 17.1344 141.797 17.2742C142.238 17.414 142.662 17.5645 143.071 17.7258C143.49 17.8871 143.856 18.0914 144.168 18.3387C144.49 18.586 144.743 18.8978 144.926 19.2742C145.119 19.6398 145.216 20.1021 145.216 20.6613C145.216 21.2312 145.103 21.7258 144.877 22.1452C144.652 22.5645 144.351 22.914 143.974 23.1935C143.609 23.4624 143.184 23.6613 142.7 23.7903C142.216 23.9301 141.716 24 141.2 24C140.867 24 140.533 23.9677 140.2 23.9032C139.867 23.8495 139.544 23.7634 139.232 23.6452C138.931 23.5161 138.646 23.3548 138.377 23.1613C138.109 22.957 137.877 22.7097 137.684 22.4194L138.845 21.4677C139.092 21.8871 139.437 22.2043 139.877 22.4194C140.318 22.6344 140.786 22.7419 141.281 22.7419C141.571 22.7419 141.861 22.6989 142.152 22.6129C142.453 22.5269 142.722 22.4032 142.958 22.2419C143.195 22.0699 143.388 21.8602 143.539 21.6129C143.689 21.3656 143.765 21.0806 143.765 20.7581C143.765 20.4032 143.705 20.1183 143.587 19.9032C143.469 19.6774 143.286 19.4839 143.039 19.3226C142.791 19.1613 142.48 19.0161 142.103 18.8871C141.727 18.7581 141.286 18.6075 140.781 18.4355C140.372 18.3065 139.996 18.1613 139.652 18C139.308 17.828 139.006 17.6237 138.748 17.3871C138.501 17.1398 138.302 16.8495 138.152 16.5161C138.012 16.172 137.942 15.7634 137.942 15.2903C137.942 14.7419 138.049 14.2634 138.265 13.8548C138.48 13.4462 138.77 13.1075 139.135 12.8387C139.501 12.5591 139.915 12.3495 140.377 12.2097C140.84 12.0699 141.324 12 141.829 12C142.474 12 143.06 12.1022 143.587 12.3065C144.125 12.5 144.603 12.8441 145.023 13.3387L143.91 14.3065Z" fill="black"/>
<rect x="0.5" y="0.5" width="160" height="35" rx="17.5" stroke="url(#paint0_linear_5_21839)"/>
<defs>
<linearGradient id="paint0_linear_5_21839" x1="151.996" y1="-1.75611" x2="0.279534" y2="37.0917" gradientUnits="userSpaceOnUse">
<stop/>
<stop offset="1" stop-opacity="0"/>
</linearGradient>
</defs>
</svg>
