<svg width="154" height="36" viewBox="0 0 154 36" fill="none" xmlns="http://www.w3.org/2000/svg">
<g clip-path="url(#clip0_5_21752)">
<path fill-rule="evenodd" clip-rule="evenodd" d="M45.7373 24.3783H48.1584V11.0078H45.7373V24.3783Z" fill="black"/>
<path fill-rule="evenodd" clip-rule="evenodd" d="M53.7359 17.5521C53.0544 17.5521 52.5012 17.7812 52.0766 18.2385C51.6525 18.6962 51.4404 19.2756 51.4404 19.9766C51.4404 20.6781 51.6525 21.2513 52.0766 21.697C52.5012 22.1427 53.0544 22.3655 53.7359 22.3655C54.0584 22.3655 54.3605 22.3062 54.6416 22.1872C54.9223 22.0683 55.1644 21.902 55.3679 21.6881C55.5711 21.4741 55.7325 21.2218 55.8522 20.9304C55.9715 20.6394 56.0315 20.3216 56.0315 19.9766C56.0315 19.6321 55.9715 19.3112 55.8522 19.014C55.7325 18.7171 55.5711 18.4613 55.3679 18.2474C55.1644 18.0335 54.9223 17.8641 54.6416 17.7393C54.3605 17.6145 54.0584 17.5521 53.7359 17.5521ZM53.7359 15.3594C54.3933 15.3594 55.012 15.4784 55.5921 15.7159C56.1719 15.9539 56.6771 16.2775 57.1076 16.6875C57.538 17.0975 57.8787 17.582 58.1298 18.1404C58.3809 18.6993 58.5064 19.3054 58.5064 19.9588C58.5064 20.6126 58.3809 21.2218 58.1298 21.7861C57.8787 22.3508 57.538 22.8379 57.1076 23.248C56.6771 23.658 56.1719 23.982 55.5921 24.2195C55.012 24.4571 54.3933 24.5761 53.7359 24.5761C53.0782 24.5761 52.4595 24.4571 51.8798 24.2195C51.2996 23.982 50.7947 23.658 50.3643 23.248C49.9339 22.8379 49.5959 22.3508 49.351 21.7861C49.1058 21.2218 48.9834 20.6126 48.9834 19.9588C48.9834 19.3054 49.1058 18.6993 49.351 18.1404C49.5959 17.582 49.9339 17.0975 50.3643 16.6875C50.7947 16.2775 51.2965 15.9539 51.8708 15.7159C52.4447 15.4784 53.0665 15.3594 53.7359 15.3594Z" fill="black"/>
<path fill-rule="evenodd" clip-rule="evenodd" d="M62.5747 24.5927C62.333 24.5927 62.1147 24.4556 62.0094 24.2405L57.7676 15.5547H60.3329L62.5591 20.5463L64.8165 15.5547H67.3624L63.14 24.2393C63.0348 24.4552 62.8164 24.5927 62.5747 24.5927Z" fill="black"/>
<path fill-rule="evenodd" clip-rule="evenodd" d="M71.2391 17.3026C70.7124 17.3026 70.2582 17.4603 69.8761 17.775C69.4929 18.0901 69.2301 18.5268 69.0866 19.0853H73.1581C73.1335 18.5148 72.9362 18.0753 72.5659 17.7661C72.1955 17.4572 71.7526 17.3026 71.2391 17.3026ZM71.3284 15.3594C71.9503 15.3594 72.5179 15.4663 73.0322 15.6803C73.5464 15.8942 73.9858 16.1856 74.3503 16.5538C74.7152 16.9224 74.9963 17.356 75.1932 17.8552C75.3905 18.3544 75.4891 18.8892 75.4891 19.4597C75.4891 19.7092 75.4712 19.953 75.4353 20.1906C75.3999 20.4285 75.3636 20.6246 75.3277 20.7789H69.0866C69.2422 21.3494 69.5408 21.7834 69.9833 22.0803C70.4259 22.3775 70.9697 22.526 71.6157 22.526C72.0933 22.526 72.5327 22.4457 72.9335 22.2853C73.3343 22.1248 73.7195 21.9078 74.0903 21.6346L75.077 23.2747C74.5745 23.6909 74.0306 24.0145 73.4446 24.2463C72.8587 24.478 72.2251 24.5939 71.5436 24.5939C70.8379 24.5939 70.1869 24.4749 69.5888 24.2374C68.9907 23.9998 68.4773 23.6731 68.0465 23.2569C67.6164 22.841 67.2784 22.3539 67.0336 21.795C66.7883 21.2366 66.6655 20.6301 66.6655 19.9766C66.6655 19.3229 66.7852 18.7171 67.0242 18.1583C67.2636 17.5998 67.5919 17.1127 68.011 16.6964C68.4293 16.2806 68.9221 15.9539 69.4902 15.7159C70.0582 15.4784 70.6711 15.3594 71.3284 15.3594Z" fill="black"/>
<path fill-rule="evenodd" clip-rule="evenodd" d="M82.0881 17.5889H79.5597V21.0652C79.5597 21.5764 79.6938 21.9329 79.9632 22.1348C80.2319 22.3371 80.6475 22.4379 81.2093 22.4379C81.3528 22.4379 81.5204 22.4321 81.7114 22.4201C81.9025 22.408 82.1177 22.3906 82.3571 22.3666V24.3811C82.1064 24.4407 81.8428 24.4907 81.568 24.5326C81.2931 24.5741 81.0003 24.595 80.6892 24.595C79.5894 24.595 78.7223 24.3276 78.0887 23.7928C77.4548 23.2579 77.1386 22.4201 77.1386 21.2791V17.5889H75.7397V15.5565H77.1386V13.3281H79.5597V15.5565H82.0881V17.5889Z" fill="black"/>
<path fill-rule="evenodd" clip-rule="evenodd" d="M85.8191 16.3025C86.1181 16.0057 86.4705 15.7739 86.8772 15.6073C87.2834 15.441 87.7442 15.3577 88.2581 15.3577C88.7603 15.3577 89.2145 15.4441 89.6211 15.6162C90.0273 15.7886 90.3743 16.0293 90.6613 16.3382C90.9486 16.6474 91.1693 17.0187 91.3248 17.4524C91.4804 17.8864 91.558 18.3705 91.558 18.9053V24.3783H89.1548V19.244C89.1548 18.7212 89.0051 18.305 88.7068 17.9961C88.4074 17.6872 88.0074 17.5326 87.5053 17.5326C87.0027 17.5326 86.5961 17.69 86.2857 18.005C85.9746 18.3197 85.8191 18.7332 85.8191 19.244V24.3783H83.3979V11.0078H85.8191V16.3025Z" fill="black"/>
<path fill-rule="evenodd" clip-rule="evenodd" d="M96.8847 17.3026C96.3584 17.3026 95.9042 17.4603 95.5217 17.775C95.1389 18.0901 94.8761 18.5268 94.7326 19.0853H98.8037C98.7795 18.5148 98.5822 18.0753 98.2115 17.7661C97.8411 17.4572 97.3986 17.3026 96.8847 17.3026ZM96.9744 15.3594C97.5959 15.3594 98.1635 15.4663 98.6781 15.6803C99.192 15.8942 99.6314 16.1856 99.9963 16.5538C100.361 16.9224 100.642 17.356 100.839 17.8552C101.036 18.3544 101.135 18.8892 101.135 19.4597C101.135 19.7092 101.117 19.953 101.081 20.1906C101.045 20.4285 101.009 20.6246 100.973 20.7789H94.7326C94.8878 21.3494 95.1868 21.7834 95.6289 22.0803C96.0714 22.3775 96.6157 22.526 97.2613 22.526C97.7393 22.526 98.1783 22.4457 98.5795 22.2853C98.9799 22.1248 99.3651 21.9078 99.7363 21.6346L100.723 23.2747C100.22 23.6909 99.6762 24.0145 99.0902 24.2463C98.5043 24.478 97.8707 24.5939 97.1892 24.5939C96.4839 24.5939 95.8325 24.4749 95.2348 24.2374C94.6367 23.9998 94.1229 23.6731 93.6924 23.2569C93.262 22.841 92.924 22.3539 92.6792 21.795C92.4339 21.2366 92.3115 20.6301 92.3115 19.9766C92.3115 19.3229 92.4308 18.7171 92.6702 18.1583C92.9092 17.5998 93.2379 17.1127 93.6566 16.6964C94.0749 16.2806 94.5681 15.9539 95.1361 15.7159C95.7038 15.4784 96.3167 15.3594 96.9744 15.3594Z" fill="black"/>
<path fill-rule="evenodd" clip-rule="evenodd" d="M105.312 15.3516C106.63 15.3516 107.691 15.7972 108.505 16.6886L107.285 18.1683C107 17.8947 106.685 17.6869 106.346 17.5443C106.002 17.4017 105.655 17.3304 105.297 17.3304C105.008 17.3304 104.778 17.3812 104.607 17.4819C104.431 17.5831 104.345 17.7404 104.345 17.9544C104.345 18.1326 104.42 18.2752 104.568 18.3822C104.72 18.4892 104.954 18.6081 105.277 18.7388L106.139 19.0953C106.938 19.4162 107.554 19.7727 107.987 20.1649C108.416 20.5571 108.63 21.0982 108.63 21.7872C108.63 22.2387 108.54 22.6402 108.361 22.9906C108.182 23.3413 107.936 23.6355 107.628 23.873C107.316 24.111 106.95 24.292 106.525 24.4168C106.1 24.5415 105.648 24.6039 105.172 24.6039C104.381 24.6039 103.671 24.4497 103.036 24.1404C102.402 23.8316 101.888 23.4157 101.493 22.8925L102.712 21.4307C103.082 21.7992 103.472 22.0903 103.878 22.3042C104.283 22.5181 104.728 22.6251 105.207 22.6251C105.515 22.6251 105.784 22.5658 106.002 22.4468C106.225 22.3282 106.334 22.1438 106.334 21.8942C106.334 21.6923 106.252 21.5376 106.084 21.4307C105.917 21.3237 105.694 21.2109 105.422 21.092L104.47 20.6998C104.088 20.5451 103.745 20.3851 103.449 20.2184C103.149 20.0522 102.899 19.8619 102.696 19.6479C102.492 19.434 102.333 19.1933 102.22 18.9259C102.106 18.6585 102.05 18.3528 102.05 18.0078C102.05 17.58 102.13 17.2025 102.291 16.8758C102.453 16.5491 102.681 16.2728 102.973 16.0468C103.266 15.8213 103.613 15.6488 104.014 15.5298C104.412 15.4112 104.848 15.3516 105.312 15.3516Z" fill="black"/>
<path fill-rule="evenodd" clip-rule="evenodd" d="M112.899 22.829C113.425 22.829 113.869 22.6686 114.236 22.3477C114.598 22.0268 114.782 21.6051 114.782 21.0819V20.975H112.879C112.056 20.975 111.643 21.2722 111.643 21.8663C111.643 22.1756 111.76 22.4132 111.994 22.5794C112.228 22.7457 112.528 22.829 112.899 22.829ZM113.382 15.3594C113.943 15.3594 114.458 15.4396 114.926 15.6C115.39 15.7605 115.791 15.9984 116.127 16.3131C116.462 16.6282 116.723 17.0204 116.906 17.4897C117.094 17.9594 117.183 18.509 117.183 19.1388V24.38H114.981V23.5243C114.669 23.8572 114.283 24.1184 113.823 24.3087C113.363 24.4986 112.84 24.5939 112.255 24.5939C111.776 24.5939 111.343 24.5253 110.961 24.3889C110.579 24.2525 110.255 24.068 109.994 23.8363C109.729 23.6045 109.53 23.3282 109.394 23.0073C109.253 22.6864 109.187 22.3361 109.187 21.9555C109.187 21.147 109.487 20.5173 110.092 20.0658C110.696 19.6143 111.518 19.3883 112.559 19.3883H114.782V18.9961C114.782 18.509 114.645 18.1284 114.368 17.8552C114.096 17.582 113.674 17.4452 113.113 17.4452C112.649 17.4452 112.232 17.5521 111.869 17.7661C111.503 17.98 111.136 18.2772 110.766 18.6574L109.526 17.1778C110.532 15.9655 111.815 15.3594 113.382 15.3594Z" fill="black"/>
<path fill-rule="evenodd" clip-rule="evenodd" d="M118.081 24.3783H120.502V11.0078H118.081V24.3783Z" fill="black"/>
<path fill-rule="evenodd" clip-rule="evenodd" d="M125.901 17.3026C125.375 17.3026 124.922 17.4603 124.536 17.775C124.154 18.0901 123.893 18.5268 123.749 19.0853H127.819C127.796 18.5148 127.597 18.0753 127.226 17.7661C126.856 17.4572 126.415 17.3026 125.901 17.3026ZM125.991 15.3594C126.614 15.3594 127.18 15.4663 127.694 15.6803C128.209 15.8942 128.649 16.1856 129.012 16.5538C129.379 16.9224 129.659 17.356 129.854 17.8552C130.053 18.3544 130.15 18.8892 130.15 19.4597C130.15 19.7092 130.135 19.953 130.096 20.1906C130.061 20.4285 130.026 20.6246 129.991 20.7789H123.749C123.905 21.3494 124.205 21.7834 124.645 22.0803C125.086 22.3775 125.632 22.526 126.279 22.526C126.755 22.526 127.195 22.4457 127.597 22.2853C127.994 22.1248 128.38 21.9078 128.751 21.6346L129.737 23.2747C129.238 23.6909 128.692 24.0145 128.108 24.2463C127.523 24.478 126.887 24.5939 126.205 24.5939C125.499 24.5939 124.848 24.4749 124.252 24.2374C123.651 23.9998 123.141 23.6731 122.708 23.2569C122.279 22.841 121.94 22.3539 121.694 21.795C121.448 21.2366 121.328 20.6301 121.328 19.9766C121.328 19.3229 121.449 18.7171 121.686 18.1583C121.924 17.5998 122.256 17.1127 122.673 16.6964C123.09 16.2806 123.585 15.9539 124.154 15.7159C124.72 15.4784 125.332 15.3594 125.991 15.3594Z" fill="black"/>
<path fill-rule="evenodd" clip-rule="evenodd" d="M134.331 15.3516C135.644 15.3516 136.709 15.7972 137.524 16.6886L136.303 18.1683C136.015 17.8947 135.703 17.6869 135.36 17.5443C135.021 17.4017 134.67 17.3304 134.311 17.3304C134.026 17.3304 133.796 17.3812 133.621 17.4819C133.449 17.5831 133.364 17.7404 133.364 17.9544C133.364 18.1326 133.438 18.2752 133.586 18.3822C133.734 18.4892 133.972 18.6081 134.295 18.7388L135.157 19.0953C135.956 19.4162 136.572 19.7727 137.001 20.1649C137.434 20.5571 137.648 21.0982 137.648 21.7872C137.648 22.2387 137.559 22.6402 137.379 22.9906C137.2 23.3413 136.954 23.6355 136.642 23.873C136.334 24.111 135.964 24.292 135.539 24.4168C135.118 24.5415 134.666 24.6039 134.186 24.6039C133.399 24.6039 132.685 24.4497 132.054 24.1404C131.418 23.8316 130.904 23.4157 130.51 22.8925L131.73 21.4307C132.1 21.7992 132.49 22.0903 132.896 22.3042C133.301 22.5181 133.746 22.6251 134.221 22.6251C134.533 22.6251 134.798 22.5658 135.021 22.4468C135.243 22.3282 135.352 22.1438 135.352 21.8942C135.352 21.6923 135.27 21.5376 135.102 21.4307C134.935 21.3237 134.713 21.2109 134.44 21.092L133.488 20.6998C133.106 20.5451 132.763 20.3851 132.467 20.2184C132.167 20.0522 131.913 19.8619 131.711 19.6479C131.508 19.434 131.352 19.1933 131.235 18.9259C131.122 18.6585 131.067 18.3528 131.067 18.0078C131.067 17.58 131.145 17.2025 131.309 16.8758C131.469 16.5491 131.699 16.2728 131.991 16.0468C132.284 15.8213 132.631 15.6488 133.028 15.5298C133.43 15.4112 133.863 15.3516 134.331 15.3516Z" fill="black"/>
<path d="M17.9715 9.90821C15.9343 11.9333 15.59 15.0137 16.9385 17.3953C17.1394 17.7518 17.3689 18.0798 17.6415 18.4078C18.4306 19.0068 19.5639 18.9497 20.2956 18.2367L27.7702 10.8067L26.8807 9.92247C24.4274 7.45531 20.4391 7.45531 17.9715 9.90821Z" fill="#00B18A"/>
<path d="M28.588 9.98106L20.2957 18.224C19.5784 18.937 18.445 18.9941 17.6416 18.3951C17.6559 18.4094 17.6703 18.4379 17.699 18.4521C17.7277 18.4949 17.7707 18.5234 17.7994 18.5662C17.8568 18.6233 17.9142 18.6803 17.9716 18.7516L26.766 27.4937C27.3255 28.0498 28.2294 28.0498 28.7889 27.4937L37.5833 18.7516C40.0652 16.2845 40.0366 12.2628 37.5116 9.82419C35.0153 7.44259 31.0413 7.54241 28.588 9.98106ZM34.2979 15.5001C33.6523 16.1418 32.5907 16.1418 31.9451 15.5001C31.2995 14.8583 31.2995 13.803 31.9451 13.1613C32.5907 12.5195 33.6523 12.5195 34.2979 13.1613C34.9435 13.803 34.9435 14.8583 34.2979 15.5001Z" fill="#22DDB3"/>
</g>
<rect x="0.5" y="0.5" width="153" height="35" rx="17.5" stroke="url(#paint0_linear_5_21752)"/>
<defs>
<linearGradient id="paint0_linear_5_21752" x1="145.388" y1="-1.75611" x2="-0.496194" y2="33.9741" gradientUnits="userSpaceOnUse">
<stop stop-color="#22DDB3"/>
<stop offset="1" stop-color="#22DDB3" stop-opacity="0"/>
</linearGradient>
<clipPath id="clip0_5_21752">
<rect width="121.667" height="20" fill="white" transform="translate(16 8)"/>
</clipPath>
</defs>
</svg>
