<svg width="38" height="38" viewBox="0 0 38 38" fill="none" xmlns="http://www.w3.org/2000/svg">
<rect x="1" y="1" width="36" height="36" rx="18" fill="#2B00D4"/>
<path d="M26.376 19.4161L15.777 26.4821C15.7017 26.5322 15.6142 26.5609 15.5239 26.5652C15.4336 26.5696 15.3437 26.5493 15.264 26.5066C15.1843 26.4639 15.1176 26.4004 15.0711 26.3228C15.0246 26.2452 15 26.1565 15 26.0661V11.9341C15 11.8436 15.0246 11.7549 15.0711 11.6773C15.1176 11.5997 15.1843 11.5362 15.264 11.4935C15.3437 11.4508 15.4336 11.4306 15.5239 11.4349C15.6142 11.4392 15.7017 11.468 15.777 11.5181L26.376 18.5841C26.4445 18.6297 26.5006 18.6916 26.5395 18.7642C26.5783 18.8367 26.5986 18.9178 26.5986 19.0001C26.5986 19.0824 26.5783 19.1634 26.5395 19.236C26.5006 19.3085 26.4445 19.3704 26.376 19.4161Z" fill="white"/>
<rect x="1" y="1" width="36" height="36" rx="18" stroke="white" stroke-width="2"/>
</svg>
