<svg width="246" height="30" viewBox="0 0 246 30" fill="none" xmlns="http://www.w3.org/2000/svg">
<path d="M3.94 22H6.26V8.26H4.38L0.36 11.18L1.46 12.9L3.94 11.04V22ZM14.3083 22.16C17.6283 22.16 19.5883 19.28 19.5883 15.14C19.5883 10.66 17.4083 8.12 14.3083 8.12C11.0083 8.12 9.02828 10.98 9.02828 15.14C9.02828 19.6 11.2083 22.16 14.3083 22.16ZM14.3083 20C12.5483 20 11.3883 18.18 11.3883 15.14C11.3883 12.06 12.5083 10.26 14.3083 10.26C16.1083 10.26 17.2283 12.06 17.2283 15.14C17.2283 18.2 16.1483 20 14.3083 20ZM34.185 7.8L29.505 16.3H29.465L24.785 7.8H22.365V22H24.785V12.48H24.805L28.685 19.26H30.265L34.165 12.48H34.185V22H36.605V7.8H34.185ZM43.0798 21.16H45.1398V17.48H48.8398V15.44H45.1398V11.74H43.0798V15.44H39.3798V17.48H43.0798V21.16Z" fill="white"/>
<path d="M62.987 13.721L60.488 20.249H60.437L57.887 13.721H56.408L59.791 22H61.117L64.483 13.721H62.987ZM67.0234 12.191C67.5674 12.191 68.0094 11.766 68.0094 11.222C68.0094 10.695 67.5674 10.253 67.0234 10.253C66.4624 10.253 66.0374 10.695 66.0374 11.222C66.0374 11.766 66.4624 12.191 67.0234 12.191ZM66.3264 22H67.7034V13.721H66.3264V22ZM77.7504 17.733C77.7504 15.353 76.2204 13.619 73.9084 13.619C71.6644 13.619 69.9474 15.37 69.9474 17.869C69.9474 20.385 71.7154 22.102 74.0614 22.102C75.5744 22.102 76.6964 21.473 77.4104 20.555L76.4414 19.722C75.9314 20.368 75.1494 20.844 74.1124 20.844C72.6164 20.844 71.5284 19.841 71.3414 18.294H77.7164C77.7164 18.243 77.7504 17.954 77.7504 17.733ZM73.9764 14.894C75.3024 14.894 76.1694 15.795 76.3904 17.155H71.3924C71.6474 15.744 72.6844 14.894 73.9764 14.894ZM89.2989 13.721L87.1909 19.909H87.1569L85.2359 13.721H84.0459L82.1589 19.909H82.1249L80.0169 13.721H78.6229L81.4959 22H82.7539L84.6409 15.965H84.6579L86.5279 22H87.8199L90.6929 13.721H89.2989ZM94.9045 22.102C96.8935 22.102 97.8625 21.031 97.8625 19.739C97.8795 18.107 96.7235 17.818 94.9725 17.138C94.0885 16.798 93.4085 16.492 93.4085 15.846C93.4085 15.251 94.0545 14.877 94.6835 14.877C95.3805 14.877 96.1455 15.098 96.8765 15.727L97.5905 14.639C96.6725 13.891 95.7375 13.619 94.7515 13.619C93.1705 13.619 92.0145 14.571 92.0145 15.846C92.0145 17.359 93.1535 17.92 94.4965 18.396C95.7035 18.804 96.4685 19.042 96.4685 19.756C96.4685 20.351 95.8905 20.861 94.9045 20.861C93.7315 20.861 93.0175 20.47 92.3715 19.875L91.6575 20.912C92.4735 21.643 93.5445 22.102 94.9045 22.102Z" fill="white" fill-opacity="0.64"/>
<path d="M127.3 19.88V19.86L130.24 16.8C131.98 15 132.52 13.68 132.52 12.16C132.52 9.64 130.48 8.12 128.22 8.12C125.98 8.12 124.56 9.24 123.78 10.72L125.44 11.9C126.06 10.82 126.96 10.28 128.06 10.28C129.3 10.28 130.16 11.2 130.16 12.42C130.16 13.6 129.34 14.62 128.22 15.8L123.8 20.46L123.84 22H132.66V19.88H127.3ZM139.965 22.16C143.285 22.16 145.245 19.28 145.245 15.14C145.245 10.66 143.065 8.12 139.965 8.12C136.665 8.12 134.685 10.98 134.685 15.14C134.685 19.6 136.865 22.16 139.965 22.16ZM139.965 20C138.205 20 137.045 18.18 137.045 15.14C137.045 12.06 138.165 10.26 139.965 10.26C141.765 10.26 142.885 12.06 142.885 15.14C142.885 18.2 141.805 20 139.965 20ZM152.601 22.16C155.921 22.16 157.881 19.28 157.881 15.14C157.881 10.66 155.701 8.12 152.601 8.12C149.301 8.12 147.321 10.98 147.321 15.14C147.321 19.6 149.501 22.16 152.601 22.16ZM152.601 20C150.841 20 149.681 18.18 149.681 15.14C149.681 12.06 150.801 10.26 152.601 10.26C154.401 10.26 155.521 12.06 155.521 15.14C155.521 18.2 154.441 20 152.601 20ZM164.278 17.9L166.818 22H169.338L165.758 16.18L169.278 12.24H166.618L162.618 16.7V7.28H160.378V22H162.618V19.7L164.238 17.9H164.278Z" fill="white"/>
<path d="M177.666 22H179.026V14.911H181.372V13.721H179.026V12.174C179.026 11.086 179.485 10.661 180.165 10.661C180.607 10.661 181.083 10.814 181.61 11.086L181.916 9.896C181.457 9.624 180.811 9.369 179.978 9.369C178.516 9.369 177.666 10.27 177.666 12.055V13.721H176.646V14.911H177.666V22ZM186.595 22.102C189.026 22.102 190.845 20.385 190.845 17.869C190.845 15.353 189.026 13.619 186.595 13.619C184.011 13.619 182.311 15.489 182.311 17.869C182.311 20.249 184.011 22.102 186.595 22.102ZM186.595 20.844C184.878 20.844 183.705 19.518 183.705 17.869C183.705 16.22 184.861 14.894 186.595 14.894C188.193 14.894 189.451 16.101 189.451 17.869C189.451 19.62 188.193 20.844 186.595 20.844ZM193.083 22H194.46V9.488H193.083V22ZM197.333 22H198.71V9.488H197.333V22ZM205.238 22.102C207.669 22.102 209.488 20.385 209.488 17.869C209.488 15.353 207.669 13.619 205.238 13.619C202.654 13.619 200.954 15.489 200.954 17.869C200.954 20.249 202.654 22.102 205.238 22.102ZM205.238 20.844C203.521 20.844 202.348 19.518 202.348 17.869C202.348 16.22 203.504 14.894 205.238 14.894C206.836 14.894 208.094 16.101 208.094 17.869C208.094 19.62 206.836 20.844 205.238 20.844ZM221.003 13.721L218.895 19.909H218.861L216.94 13.721H215.75L213.863 19.909H213.829L211.721 13.721H210.327L213.2 22H214.458L216.345 15.965H216.362L218.232 22H219.524L222.397 13.721H221.003ZM230.987 17.733C230.987 15.353 229.457 13.619 227.145 13.619C224.901 13.619 223.184 15.37 223.184 17.869C223.184 20.385 224.952 22.102 227.298 22.102C228.811 22.102 229.933 21.473 230.647 20.555L229.678 19.722C229.168 20.368 228.386 20.844 227.349 20.844C225.853 20.844 224.765 19.841 224.578 18.294H230.953C230.953 18.243 230.987 17.954 230.987 17.733ZM227.213 14.894C228.539 14.894 229.406 15.795 229.627 17.155H224.629C224.884 15.744 225.921 14.894 227.213 14.894ZM237.171 13.619C236.049 13.619 235.08 14.197 234.468 15.183H234.451V13.721H233.074V22H234.451V18.005C234.451 16.339 235.403 15.132 236.967 15.132C237.103 15.132 237.324 15.149 237.511 15.166V13.636C237.426 13.619 237.307 13.619 237.171 13.619ZM241.683 22.102C243.672 22.102 244.641 21.031 244.641 19.739C244.658 18.107 243.502 17.818 241.751 17.138C240.867 16.798 240.187 16.492 240.187 15.846C240.187 15.251 240.833 14.877 241.462 14.877C242.159 14.877 242.924 15.098 243.655 15.727L244.369 14.639C243.451 13.891 242.516 13.619 241.53 13.619C239.949 13.619 238.793 14.571 238.793 15.846C238.793 17.359 239.932 17.92 241.275 18.396C242.482 18.804 243.247 19.042 243.247 19.756C243.247 20.351 242.669 20.861 241.683 20.861C240.51 20.861 239.796 20.47 239.15 19.875L238.436 20.912C239.252 21.643 240.323 22.102 241.683 22.102Z" fill="white" fill-opacity="0.64"/>
</svg>
