<svg width="28" height="28" viewBox="0 0 28 28" fill="none" xmlns="http://www.w3.org/2000/svg">
<path d="M14.0002 2.33594C20.4437 2.33594 25.6668 7.5591 25.6668 14.0026C25.6668 16.8026 24.6798 19.3739 23.0348 21.3853L23.0745 21.4273L21.4248 23.0769L21.3828 23.0373C19.3011 24.7432 16.6916 25.6735 14.0002 25.6693C7.55666 25.6693 2.3335 20.4461 2.3335 14.0026C2.3335 7.5591 7.55666 2.33594 14.0002 2.33594ZM4.66683 14.0026C4.6668 15.749 5.15677 17.4604 6.08102 18.9422C7.00527 20.424 8.32673 21.6167 9.89516 22.3849C11.4636 23.153 13.2161 23.4656 14.9533 23.2873C16.6906 23.1089 18.343 22.4467 19.7227 21.3759L16.9518 18.6039C16.7486 18.6476 16.5413 18.6695 16.3335 18.6693H15.1668V21.0026H12.8335V18.6693H9.91683V16.3359H16.3335C16.4793 16.3362 16.6199 16.2819 16.7276 16.1837C16.8353 16.0855 16.9023 15.9505 16.9155 15.8053C16.9287 15.6601 16.887 15.5153 16.7987 15.3993C16.7104 15.2833 16.5819 15.2046 16.4385 15.1786L16.3335 15.1693H11.6668C11.1549 15.1693 10.6519 15.0345 10.2085 14.7785C9.76514 14.5225 9.39696 14.1543 9.14098 13.7109C8.88499 13.2675 8.75023 12.7646 8.75024 12.2526C8.75024 11.7406 8.88501 11.2377 9.141 10.7943L6.62566 8.27894C5.35258 9.91493 4.66308 11.9296 4.66683 14.0026V14.0026ZM14.0002 4.66927C11.8442 4.66927 9.85849 5.40077 8.27766 6.62927L11.0485 9.4001C11.2517 9.35684 11.459 9.33533 11.6668 9.33594H12.8335V7.0026H15.1668V9.33594H18.0835V11.6693H11.6668C11.5211 11.669 11.3805 11.7233 11.2727 11.8215C11.165 11.9197 11.098 12.0547 11.0848 12.1999C11.0716 12.3451 11.1133 12.4899 11.2016 12.6059C11.2899 12.7219 11.4184 12.8006 11.5618 12.8266L11.6668 12.8359H16.3335C16.8455 12.8359 17.3484 12.9707 17.7918 13.2267C18.2352 13.4827 18.6034 13.8509 18.8593 14.2943C19.1153 14.7377 19.2501 15.2406 19.2501 15.7526C19.2501 16.2646 19.1153 16.7676 18.8593 17.2109L21.3747 19.7251C22.4455 18.3454 23.1077 16.6929 23.286 14.9555C23.4643 13.2181 23.1516 11.4655 22.3833 9.89708C21.6151 8.32861 20.4221 7.00717 18.9402 6.083C17.4582 5.15883 15.7467 4.66903 14.0002 4.66927V4.66927Z" fill="white"/>
</svg>
