<svg width="216" height="40" viewBox="0 0 216 40" fill="none" xmlns="http://www.w3.org/2000/svg">
<path d="M75.8441 39.3325H67.1309V0H75.8441V39.3325Z" fill="white"/>
<path d="M89.077 26.8868C89.5768 30.4991 92.6838 32.7175 96.3985 32.7175C99.0056 32.7175 101.671 31.3335 102.995 29.1641L109.258 33.277C106.758 37.7727 102.544 40.001 96.4965 40.001C91.8899 40.001 88.0674 38.558 84.9017 35.6721C81.7947 32.7273 80.2461 29.0071 80.2461 24.4525C80.2461 20.1727 81.7947 16.5605 84.8527 13.5077C87.9596 10.455 91.6743 8.95312 95.9476 8.95312C100.329 8.95312 103.877 10.347 106.601 13.066C109.326 15.785 110.708 19.3973 110.708 23.785C110.708 25.1691 110.649 26.2292 110.6 26.8967H89.077V26.8868ZM102.064 21.1641C101.838 18.5531 99.6818 16.001 95.7418 16.001C93.9678 16.001 92.4682 16.5605 91.3018 17.7188C90.1355 18.828 89.469 19.9961 89.3024 21.1641H102.064Z" fill="white"/>
<path d="M134.257 39.3327V22.891C134.257 19.3965 132.483 17.1094 129.101 17.1094C125.602 17.1094 123.779 19.6125 123.779 22.891V39.3327H115.125V9.21736H123.721V13.556H123.779C124.505 12.3388 125.446 11.3867 126.72 10.6701C129.327 9.16829 130.875 9.10938 132.159 9.10938C135.707 9.10938 138.373 10.2186 140.147 12.4959C141.98 14.7732 142.862 17.5511 142.862 20.8885V39.3327H134.257Z" fill="white"/>
<path fill-rule="evenodd" clip-rule="evenodd" d="M62.7283 9.21875V24.2764V39.3341H54.015V37.7439C52.0842 38.7353 49.9475 39.3341 47.6835 39.3341C39.3819 39.3341 32.6484 32.5905 32.6484 24.2764C32.6484 15.9623 39.3819 9.21875 47.6835 9.21875C49.9475 9.21875 52.094 9.81752 54.015 10.8089V9.21875H62.7283ZM48.2209 31.512C52.1183 31.512 55.2778 28.2599 55.2778 24.2482C55.2778 20.2365 52.1183 16.9844 48.2209 16.9844C44.3235 16.9844 41.1641 20.2365 41.1641 24.2482C41.1641 28.2599 44.3235 31.512 48.2209 31.512Z" fill="white"/>
<path d="M163.242 17.9435V9.21716H155.92V0H147.266V9.21716V17.9337V28.1619C147.266 35.1018 151.314 39.3325 159.027 39.3325C160.468 39.3325 161.801 39.1656 163.075 38.773V31.8233H161.526C161.379 31.8331 161.232 31.8331 161.075 31.8331C157.694 31.8331 155.92 30.4981 155.92 27.1116V17.9435H163.242Z" fill="white"/>
<path d="M28.9324 17.9435V9.21716H21.7775V0H13.123V9.21716V17.9337V28.1619C13.123 35.1018 17.1709 39.3325 24.8845 39.3325C26.3252 39.3325 27.6582 39.1656 28.9324 38.773V31.8233H27.3838C27.2368 31.8331 27.0897 31.8331 26.9329 31.8331C23.5515 31.8331 21.7775 30.4981 21.7775 27.1116V17.9435H28.9324Z" fill="white"/>
<path d="M0.980469 17.9451V9.21875H9.69372V17.9353H0.980469V17.9451Z" fill="#FE3B1F"/>
<path d="M168.277 16.8971C167.381 16.0035 166.912 14.902 166.912 13.6655C166.912 11.1094 168.955 9.03125 171.519 9.03125C174.082 9.03125 176.125 11.1198 176.125 13.6655C176.125 14.902 175.656 16.0035 174.76 16.8971C173.864 17.7907 172.801 18.2582 171.519 18.2582C170.289 18.2582 169.174 17.7907 168.277 16.8971Z" fill="#FE3B1F"/>
<path d="M169.501 37.6657C168.276 36.4387 167.648 34.9075 167.648 33.0817C167.648 31.3443 168.276 29.8424 169.501 28.5664C170.726 27.2903 172.255 26.6719 174.078 26.6719C176.852 26.6719 178.89 28.1737 179.625 30.3725L177.263 31.4326C176.734 29.9308 175.666 29.1651 174.098 29.1651C173.078 29.1651 172.226 29.5381 171.51 30.2547C170.814 30.9713 170.471 31.894 170.471 33.0326C170.471 34.1909 170.814 35.143 171.51 35.8792C172.206 36.6252 173.078 36.9884 174.127 36.9884C175.676 36.9884 176.734 36.2228 177.312 34.6915L179.714 35.7614C179.371 36.7528 178.694 37.6363 177.753 38.3823C176.803 39.1185 175.578 39.4915 174.078 39.4915C172.245 39.4915 170.726 38.8927 169.501 37.6657Z" fill="white"/>
<path d="M192.546 28.5016C193.82 29.7286 194.438 31.2305 194.438 33.0366C194.438 34.8624 193.811 36.3937 192.546 37.6403C191.301 38.8673 189.772 39.4955 187.949 39.4955C186.146 39.4955 184.597 38.8673 183.323 37.6403C182.049 36.4133 181.432 34.882 181.432 33.0759C181.432 31.2697 182.079 29.7384 183.353 28.5115C184.627 27.2845 186.175 26.6562 187.979 26.6562C189.753 26.6759 191.272 27.2746 192.546 28.5016ZM184.245 33.0366C184.245 34.1262 184.588 35.0489 185.284 35.8342C185.979 36.5998 186.881 36.9924 187.969 36.9924C189.057 36.9924 189.959 36.6194 190.625 35.8538C191.292 35.0881 191.644 34.1654 191.644 33.0759C191.644 31.9863 191.301 31.0636 190.606 30.298C189.939 29.5323 189.037 29.1593 187.949 29.1593C186.861 29.1593 185.96 29.5323 185.264 30.298C184.597 31.0538 184.245 31.9569 184.245 33.0366Z" fill="white"/>
<path d="M204.861 39.2835V32.3339C204.861 30.4787 204.028 29.2517 202.205 29.2517C200.539 29.2517 199.5 30.5277 199.5 32.4026V39.2738H196.746V26.9155H199.432V28.5842C200.402 27.2885 201.627 26.6406 203.107 26.6406C204.891 26.6406 206.155 27.3081 206.92 28.6823C208.194 27.2885 209.39 26.6406 211.222 26.6406C214.202 26.6406 215.711 28.6823 215.711 31.6369V39.2738H212.957V32.3044C212.957 30.4296 212.154 29.2517 210.321 29.2517C208.635 29.2517 207.596 30.4983 207.596 32.3731V39.2738H204.861V39.2835Z" fill="white"/>
</svg>
