<svg width="219" height="73" viewBox="0 0 219 73" fill="none" xmlns="http://www.w3.org/2000/svg">
<path d="M43.3762 34.356V38.586H25.8922V58.044H21.5682V38.586H4.08417V34.356H21.5682V15.838H25.8922V34.356H43.3762Z" fill="white"/>
<path d="M76.9978 61.036H85.1758V71H54.3438V61.036H65.0598V24.752H54.6258V14.788H65.0598V5.67H76.9978V61.036ZM119.462 72.128C101.978 72.128 90.6975 59.25 90.6975 38.288C90.6975 16.856 101.978 4.636 119.462 4.636C137.04 4.636 148.226 16.95 148.226 38.288C148.226 59.25 136.946 72.128 119.462 72.128ZM119.462 60.754C129.426 60.754 136.006 52.67 136.006 38.382C136.006 24.094 129.426 16.01 119.462 16.01C109.498 16.01 102.918 24 102.918 38.382C102.918 52.764 109.498 60.754 119.462 60.754ZM185.28 72.128C167.796 72.128 156.516 59.25 156.516 38.288C156.516 16.856 167.796 4.636 185.28 4.636C202.858 4.636 214.044 16.95 214.044 38.288C214.044 59.25 202.764 72.128 185.28 72.128ZM185.28 60.754C195.244 60.754 201.824 52.67 201.824 38.382C201.824 24.094 195.244 16.01 185.28 16.01C175.316 16.01 168.736 24 168.736 38.382C168.736 52.764 175.316 60.754 185.28 60.754Z" fill="white"/>
</svg>
